<svg viewBox="0 0 120 120" xmlns="http://www.w3.org/2000/svg">
  <defs>
    <linearGradient id="bhs-body" x1="0" y1="0" x2="0" y2="1">
      <stop offset="0" stop-color="#fbfdff"/>
      <stop offset="1" stop-color="#c4d6ea"/>
    </linearGradient>
    <radialGradient id="bhs-ember" cx="0.5" cy="0.5" r="0.5">
      <stop offset="0" stop-color="#fff2b0"/><stop offset="0.5" stop-color="#ff7a18"/><stop offset="1" stop-color="#c01b00"/>
    </radialGradient>
  </defs>
  <path d="M58 30 q8 -8 0 -16 q-8 -8 0 -16" fill="none" stroke="#cfc4b0" stroke-width="2.5" stroke-linecap="round" opacity="0.5"/>
  <g stroke="#8a3b20" stroke-width="2.4" stroke-linecap="round">
    <line x1="50" y1="66" x2="42" y2="22"/><line x1="60" y1="66" x2="60" y2="14"/><line x1="70" y1="66" x2="78" y2="24"/>
  </g>
  <circle cx="42" cy="22" r="3.4" fill="url(#bhs-ember)"/>
  <circle cx="60" cy="14" r="3.4" fill="url(#bhs-ember)"/>
  <circle cx="78" cy="24" r="3.4" fill="url(#bhs-ember)"/>
  <path d="M22 70 Q60 124 98 70 Z" fill="url(#bhs-body)" stroke="#5a6b80" stroke-width="2"/>
  <ellipse cx="60" cy="70" rx="38" ry="11" fill="#eaf1f8" stroke="#5a6b80" stroke-width="2"/>
  <ellipse cx="60" cy="70" rx="30" ry="7" fill="#aac2db"/>
  <!-- hoa văn men lam -->
  <path d="M30 84 Q60 76 90 84" fill="none" stroke="#2f5fa8" stroke-width="2.5"/>
  <circle cx="60" cy="94" r="8" fill="none" stroke="#2f5fa8" stroke-width="2.5"/>
  <path d="M34 102 Q60 112 86 102" fill="none" stroke="#2f5fa8" stroke-width="2"/>
  <rect x="44" y="108" width="32" height="8" rx="3" fill="url(#bhs-body)" stroke="#5a6b80" stroke-width="1.5"/>
</svg>
