<svg viewBox="0 0 100 140" xmlns="http://www.w3.org/2000/svg">
  <defs>
    <linearGradient id="bhl-vase" x1="0" y1="0" x2="1" y2="1">
      <stop offset="0" stop-color="#d8efe0"/>
      <stop offset="0.5" stop-color="#9cd1b6"/>
      <stop offset="1" stop-color="#5fa884"/>
    </linearGradient>
    <radialGradient id="bhl-p" cx="0.5" cy="0.5" r="0.5">
      <stop offset="0" stop-color="#ffd1e3"/><stop offset="1" stop-color="#e8569a"/>
    </radialGradient>
  </defs>
  <g stroke="#3f8f4f" stroke-width="3" fill="none" stroke-linecap="round">
    <path d="M50 74 L30 30"/><path d="M50 74 L50 22"/><path d="M50 74 L72 32"/>
  </g>
  <g fill="#3f8f4f">
    <path d="M40 50 q-10 -2 -14 -10 q10 -2 14 6z"/>
    <path d="M60 48 q10 -2 14 -10 q-10 -2 -14 6z"/>
  </g>
  <g fill="url(#bhl-p)" stroke="#c43d7c" stroke-width="1">
    <g><circle cx="30" cy="28" r="6"/><circle cx="24" cy="24" r="5"/><circle cx="36" cy="24" r="5"/><circle cx="27" cy="34" r="5"/><circle cx="33" cy="34" r="5"/><circle cx="30" cy="29" r="3" fill="#fff0c0"/></g>
    <g><circle cx="50" cy="20" r="6"/><circle cx="44" cy="16" r="5"/><circle cx="56" cy="16" r="5"/><circle cx="47" cy="26" r="5"/><circle cx="53" cy="26" r="5"/><circle cx="50" cy="21" r="3" fill="#fff0c0"/></g>
    <g><circle cx="72" cy="30" r="6"/><circle cx="66" cy="26" r="5"/><circle cx="78" cy="26" r="5"/><circle cx="69" cy="36" r="5"/><circle cx="75" cy="36" r="5"/><circle cx="72" cy="31" r="3" fill="#fff0c0"/></g>
  </g>
  <path d="M40 72 Q34 70 36 78 Q24 96 30 118 Q34 134 50 134 Q66 134 70 118 Q76 96 64 78 Q66 70 60 72 Z"
        fill="url(#bhl-vase)" stroke="#3f7a5e" stroke-width="2"/>
  <ellipse cx="50" cy="74" rx="11" ry="3.5" fill="#5fa884"/>
  <path d="M34 102 Q50 96 66 102" fill="none" stroke="#3f7a5e" stroke-width="2.2" opacity="0.7"/>
</svg>
