<svg viewBox="0 0 64 110" xmlns="http://www.w3.org/2000/svg">
  <defs>
    <radialGradient id="nh-ember" cx="0.5" cy="0.5" r="0.5">
      <stop offset="0" stop-color="#fff2b0"/><stop offset="0.5" stop-color="#ff7a18"/><stop offset="1" stop-color="#c01b00"/>
    </radialGradient>
  </defs>
  <!-- khói -->
  <g fill="none" stroke="#cfc4b0" stroke-width="2" stroke-linecap="round" opacity="0.5">
    <path d="M22 34 q7 -8 0 -16"/>
    <path d="M32 30 q-7 -8 0 -16"/>
    <path d="M42 34 q7 -8 0 -16"/>
  </g>
  <!-- 3 cây nhang -->
  <g stroke="#6b4a2a" stroke-width="2.4" stroke-linecap="round">
    <line x1="26" y1="64" x2="22" y2="34"/>
    <line x1="32" y1="64" x2="32" y2="28"/>
    <line x1="38" y1="64" x2="42" y2="34"/>
  </g>
  <circle cx="22" cy="34" r="3.2" fill="url(#nh-ember)"/>
  <circle cx="32" cy="28" r="3.2" fill="url(#nh-ember)"/>
  <circle cx="42" cy="34" r="3.2" fill="url(#nh-ember)"/>
  <!-- bát hương -->
  <path d="M10 66 Q32 102 54 66 Z" fill="#c89b2f" stroke="#5a3a10" stroke-width="2"/>
  <circle cx="32" cy="82" r="6" fill="none" stroke="#7a5408" stroke-width="2"/>
  <ellipse cx="32" cy="66" rx="24" ry="6" fill="#f0d069" stroke="#5a3a10" stroke-width="2"/>
  <ellipse cx="32" cy="66" rx="18" ry="4" fill="#a87412"/>
  <rect x="22" y="100" width="20" height="7" rx="2" fill="#a87412" stroke="#5a3a10" stroke-width="1"/>
</svg>
