<svg viewBox="0 0 90 130" xmlns="http://www.w3.org/2000/svg">
  <defs>
    <linearGradient id="oh-brass" x1="0" y1="0" x2="1" y2="0">
      <stop offset="0" stop-color="#8a6508"/>
      <stop offset="0.5" stop-color="#e9c558"/>
      <stop offset="1" stop-color="#8a6508"/>
    </linearGradient>
    <radialGradient id="oh-ember" cx="0.5" cy="0.5" r="0.5">
      <stop offset="0" stop-color="#fff2b0"/><stop offset="1" stop-color="#d94b00"/>
    </radialGradient>
  </defs>
  <!-- bó hương xoè -->
  <g stroke="#8a3b20" stroke-width="2.2" stroke-linecap="round">
    <line x1="45" y1="60" x2="22" y2="12"/>
    <line x1="45" y1="60" x2="34" y2="6"/>
    <line x1="45" y1="60" x2="45" y2="4"/>
    <line x1="45" y1="60" x2="56" y2="6"/>
    <line x1="45" y1="60" x2="68" y2="12"/>
  </g>
  <g fill="url(#oh-ember)">
    <circle cx="22" cy="12" r="3"/><circle cx="34" cy="6" r="3"/><circle cx="45" cy="4" r="3"/><circle cx="56" cy="6" r="3"/><circle cx="68" cy="12" r="3"/>
  </g>
  <!-- ống đựng -->
  <path d="M28 58 L62 58 L58 124 L32 124 Z" fill="url(#oh-brass)" stroke="#5a3a10" stroke-width="2"/>
  <ellipse cx="45" cy="58" rx="17" ry="5" fill="#f0d069" stroke="#5a3a10" stroke-width="2"/>
  <ellipse cx="45" cy="58" rx="12" ry="3" fill="#a87412"/>
  <!-- hoa văn -->
  <path d="M33 80 h24" stroke="#7a5408" stroke-width="2.4"/>
  <path d="M34 104 h22" stroke="#7a5408" stroke-width="2.4"/>
  <ellipse cx="45" cy="124" rx="13" ry="4" fill="#a87412" stroke="#5a3a10" stroke-width="1.4"/>
</svg>
